<?xml version="1.0" encoding="UTF-8"?>
<svg xmlns="http://www.w3.org/2000/svg" width="1600" height="680" viewBox="0 0 1600 680" role="img" aria-labelledby="title desc">
<title id="title">Zeref guarded-memory flow static</title>
<desc id="desc">Seven-stage Zeref flow: context, evidence classification, privacy check, contradiction check, guarded write, audit trace, and cross-tool handoff.</desc>
<defs>
  <linearGradient id="mineralWash" x1="0" y1="0" x2="1" y2="1"><stop stop-color="#F5F8F4"/><stop offset=".62" stop-color="#E9F0EA"/><stop offset="1" stop-color="#DCE8DE"/></linearGradient>
  <linearGradient id="bioPanel" x1="0" y1="0" x2="1" y2="1"><stop stop-color="#06110B"/><stop offset=".58" stop-color="#0A1A11"/><stop offset="1" stop-color="#102419"/></linearGradient>
  <radialGradient id="irisGlow" cx="50%" cy="50%" r="56%"><stop stop-color="#102419"/><stop offset=".68" stop-color="#06110B"/><stop offset="1" stop-color="#53E786" stop-opacity=".16"/></radialGradient>

  <style>
  :root{--mineral-bg:#F5F8F4;--mineral-surface:#E9F0EA;--mineral-line:#B9CCBE;--bio-void:#06110B;--bio-panel:#0A1A11;--bio-panel-2:#102419;--ink-primary:#13241A;--ink-secondary:#496255;--ink-on-dark:#EAF7EE;--signal-deep:#13743F;--signal:#53E786;--signal-soft:#95F5B4}
  .sans{font-family:Inter,Arial,system-ui,sans-serif}.mono{font-family:SFMono-Regular,Consolas,"Liberation Mono",monospace}.title{letter-spacing:.02em}.small{letter-spacing:.12em}.micro{letter-spacing:.16em}
  .panel{fill:#0A1A11;stroke:#B9CCBE;stroke-width:1.4}.shell{fill:#F5F8F4;stroke:#13743F;stroke-width:1.5}.label{fill:#13241A}.muted{fill:#496255}.darkText{fill:#EAF7EE}.signal{stroke:#53E786;fill:none;stroke-linecap:round;stroke-linejoin:round}.softSignal{stroke:#95F5B4;fill:none;stroke-linecap:round;stroke-linejoin:round}.line{stroke:#B9CCBE;fill:none;stroke-linecap:round}.node{fill:#95F5B4;stroke:#13743F;stroke-width:1.2}
</style>
</defs>

<rect width="1600" height="680" fill="url(#mineralWash)"/>
<path class="shell" d="M34 34H1566V646H34Z"/>
<text class="sans title label" x="70" y="82" font-size="38" font-weight="650">Zeref guarded-memory flow</text>
<path class="signal" d="M706 168C770 194 805 196 856 224C925 262 718 280 706 338C694 397 824 404 856 452C890 504 720 520 706 548C694 584 930 596 1210 598" stroke-width="3"/>
<g class="" style="animation-delay:0s" transform="translate(190 120)"><path class="panel" d="M16 0H500L516 16V60L500 76H16L0 60V16Z"/><text class="sans darkText" x="258" y="47" text-anchor="middle" font-size="22" font-weight="650">CONTEXT</text></g><g class="" style="animation-delay:0.7s" transform="translate(855 192)"><path class="panel" d="M16 0H500L516 16V60L500 76H16L0 60V16Z"/><text class="sans darkText" x="258" y="47" text-anchor="middle" font-size="22" font-weight="650">EVIDENCE CLASSIFICATION</text></g><g class="" style="animation-delay:1.4s" transform="translate(190 264)"><path class="panel" d="M16 0H500L516 16V60L500 76H16L0 60V16Z"/><text class="sans darkText" x="258" y="47" text-anchor="middle" font-size="22" font-weight="650">PRIVACY CHECK</text></g><g class="" style="animation-delay:2.0999999999999996s" transform="translate(855 336)"><path class="panel" d="M16 0H500L516 16V60L500 76H16L0 60V16Z"/><text class="sans darkText" x="258" y="47" text-anchor="middle" font-size="22" font-weight="650">CONTRADICTION CHECK</text></g><g class="" style="animation-delay:2.8s" transform="translate(190 408)"><path class="panel" d="M16 0H500L516 16V60L500 76H16L0 60V16Z"/><text class="sans darkText" x="258" y="47" text-anchor="middle" font-size="22" font-weight="650">GUARDED WRITE</text></g><g class="" style="animation-delay:3.5s" transform="translate(855 480)"><path class="panel" d="M16 0H500L516 16V60L500 76H16L0 60V16Z"/><text class="sans darkText" x="258" y="47" text-anchor="middle" font-size="22" font-weight="650">AUDIT TRACE</text></g><g class="" style="animation-delay:4.199999999999999s" transform="translate(190 552)"><path class="panel" d="M16 0H500L516 16V60L500 76H16L0 60V16Z"/><text class="sans darkText" x="258" y="47" text-anchor="middle" font-size="22" font-weight="650">CROSS-TOOL HANDOFF</text></g>
<circle class=" node" cx="708" cy="168" r="10"/>
<text class="mono muted" x="970" y="604" font-size="17">append-only handoff exits for human review</text>
</svg>