<?xml version="1.0" encoding="UTF-8"?>
<svg xmlns="http://www.w3.org/2000/svg" width="1600" height="640" viewBox="0 0 1600 640" role="img" aria-labelledby="title desc">
<title id="title">AlienTech tool constellation static</title>
<desc id="desc">Workflow constellation connecting Figma, Linear, Notion, React, SwiftUI, Firebase, Claude, Codex, and GitHub in approved order.</desc>
<defs>
  <linearGradient id="mineralWash" x1="0" y1="0" x2="1" y2="1"><stop stop-color="#F5F8F4"/><stop offset=".62" stop-color="#E9F0EA"/><stop offset="1" stop-color="#DCE8DE"/></linearGradient>
  <linearGradient id="bioPanel" x1="0" y1="0" x2="1" y2="1"><stop stop-color="#06110B"/><stop offset=".58" stop-color="#0A1A11"/><stop offset="1" stop-color="#102419"/></linearGradient>
  <radialGradient id="irisGlow" cx="50%" cy="50%" r="56%"><stop stop-color="#102419"/><stop offset=".68" stop-color="#06110B"/><stop offset="1" stop-color="#53E786" stop-opacity=".16"/></radialGradient>

  <style>
  :root{--mineral-bg:#F5F8F4;--mineral-surface:#E9F0EA;--mineral-line:#B9CCBE;--bio-void:#06110B;--bio-panel:#0A1A11;--bio-panel-2:#102419;--ink-primary:#13241A;--ink-secondary:#496255;--ink-on-dark:#EAF7EE;--signal-deep:#13743F;--signal:#53E786;--signal-soft:#95F5B4}
  .sans{font-family:Inter,Arial,system-ui,sans-serif}.mono{font-family:SFMono-Regular,Consolas,"Liberation Mono",monospace}.title{letter-spacing:.02em}.small{letter-spacing:.12em}.micro{letter-spacing:.16em}
  .panel{fill:#0A1A11;stroke:#B9CCBE;stroke-width:1.4}.shell{fill:#F5F8F4;stroke:#13743F;stroke-width:1.5}.label{fill:#13241A}.muted{fill:#496255}.darkText{fill:#EAF7EE}.signal{stroke:#53E786;fill:none;stroke-linecap:round;stroke-linejoin:round}.softSignal{stroke:#95F5B4;fill:none;stroke-linecap:round;stroke-linejoin:round}.line{stroke:#B9CCBE;fill:none;stroke-linecap:round}.node{fill:#95F5B4;stroke:#13743F;stroke-width:1.2}
</style>
</defs>

<rect width="1600" height="640" fill="url(#mineralWash)"/>
<path class="shell" d="M34 34H1566V606H34Z"/>
<text class="sans title label" x="70" y="92" font-size="42" font-weight="650">Product and delivery tool constellation</text>
<text class="mono micro muted" x="72" y="132" font-size="18">DISCOVER -> ORGANIZE -> DESIGN -> BUILD -> VERIFY -> SHIP</text>
<path class="signal" d="M160 180C270 70 370 330 468 180S592 354 680 255S782 72 842 180S902 350 1004 255S1104 100 1196 180S1268 340 1330 260S1400 70 1464 180" stroke-width="3"/>
<path class="softSignal" d="M160 180H468M680 255H1004M1196 180H1464" opacity=".55" stroke-width="2"/>
<g class="" style="animation-delay:0s" transform="translate(160 180)"><circle cx="0" cy="0" r="48" fill="#F9FCF8" stroke="#B9CCBE"/><g transform="translate(-18 -18) scale(1.5)"><path fill="#13743F" d="M15.852 8.981h-4.588V0h4.588c2.476 0 4.49 2.014 4.49 4.49s-2.014 4.491-4.49 4.491zM12.735 7.51h3.117c1.665 0 3.019-1.355 3.019-3.019s-1.355-3.019-3.019-3.019h-3.117V7.51zm0 1.471H8.148c-2.476 0-4.49-2.014-4.49-4.49S5.672 0 8.148 0h4.588v8.981zm-4.587-7.51c-1.665 0-3.019 1.355-3.019 3.019s1.354 3.02 3.019 3.02h3.117V1.471H8.148zm4.587 15.019H8.148c-2.476 0-4.49-2.014-4.49-4.49s2.014-4.49 4.49-4.49h4.588v8.98zM8.148 8.981c-1.665 0-3.019 1.355-3.019 3.019s1.355 3.019 3.019 3.019h3.117V8.981H8.148zM8.172 24c-2.489 0-4.515-2.014-4.515-4.49s2.014-4.49 4.49-4.49h4.588v4.441c0 2.503-2.047 4.539-4.563 4.539zm-.024-7.51a3.023 3.023 0 0 0-3.019 3.019c0 1.665 1.365 3.019 3.044 3.019 1.705 0 3.093-1.376 3.093-3.068v-2.97H8.148zm7.704 0h-.098c-2.476 0-4.49-2.014-4.49-4.49s2.014-4.49 4.49-4.49h.098c2.476 0 4.49 2.014 4.49 4.49s-2.014 4.49-4.49 4.49zm-.097-7.509c-1.665 0-3.019 1.355-3.019 3.019s1.355 3.019 3.019 3.019h.098c1.665 0 3.019-1.355 3.019-3.019s-1.355-3.019-3.019-3.019h-.098z"/></g><circle cx="0" cy="0" r="7" class="node" opacity=".72"/><text class="sans label" y="80" text-anchor="middle" font-size="18">Figma</text></g><g class="" style="animation-delay:0.55s" transform="translate(314 250)"><circle cx="0" cy="0" r="48" fill="#F9FCF8" stroke="#B9CCBE"/><g transform="translate(-18 -18) scale(1.5)"><path fill="#13743F" d="M2.886 4.18A11.982 11.982 0 0 1 11.99 0C18.624 0 24 5.376 24 12.009c0 3.64-1.62 6.903-4.18 9.105L2.887 4.18ZM1.817 5.626l16.556 16.556c-.524.33-1.075.62-1.65.866L.951 7.277c.247-.575.537-1.126.866-1.65ZM.322 9.163l14.515 14.515c-.71.172-1.443.282-2.195.322L0 11.358a12 12 0 0 1 .322-2.195Zm-.17 4.862 9.823 9.824a12.02 12.02 0 0 1-9.824-9.824Z"/></g><circle cx="0" cy="0" r="7" class="node" opacity=".72"/><text class="sans label" y="80" text-anchor="middle" font-size="18">Linear</text></g><g class="" style="animation-delay:1.1s" transform="translate(468 180)"><circle cx="0" cy="0" r="48" fill="#F9FCF8" stroke="#B9CCBE"/><g transform="translate(-18 -18) scale(1.5)"><path fill="#13743F" d="M4.459 4.208c.746.606 1.026.56 2.428.466l13.215-.793c.28 0 .047-.28-.046-.326L17.86 1.968c-.42-.326-.981-.7-2.055-.607L3.01 2.295c-.466.046-.56.28-.374.466zm.793 3.08v13.904c0 .747.373 1.027 1.214.98l14.523-.84c.841-.046.935-.56.935-1.167V6.354c0-.606-.233-.933-.748-.887l-15.177.887c-.56.047-.747.327-.747.933zm14.337.745c.093.42 0 .84-.42.888l-.7.14v10.264c-.608.327-1.168.514-1.635.514-.748 0-.935-.234-1.495-.933l-4.577-7.186v6.952L12.21 19s0 .84-1.168.84l-3.222.186c-.093-.186 0-.653.327-.746l.84-.233V9.854L7.822 9.76c-.094-.42.14-1.026.793-1.073l3.456-.233 4.764 7.279v-6.44l-1.215-.139c-.093-.514.28-.887.747-.933zM1.936 1.035l13.31-.98c1.634-.14 2.055-.047 3.082.7l4.249 2.986c.7.513.934.653.934 1.213v16.378c0 1.026-.373 1.634-1.68 1.726l-15.458.934c-.98.047-1.448-.093-1.962-.747l-3.129-4.06c-.56-.747-.793-1.306-.793-1.96V2.667c0-.839.374-1.54 1.447-1.632z"/></g><circle cx="0" cy="0" r="7" class="node" opacity=".72"/><text class="sans label" y="80" text-anchor="middle" font-size="18">Notion</text></g><g class="" style="animation-delay:1.6500000000000001s" transform="translate(680 255)"><circle cx="0" cy="0" r="48" fill="#F9FCF8" stroke="#B9CCBE"/><g transform="translate(-18 -18) scale(1.5)"><path fill="#13743F" d="M14.23 12.004a2.236 2.236 0 0 1-2.235 2.236 2.236 2.236 0 0 1-2.236-2.236 2.236 2.236 0 0 1 2.235-2.236 2.236 2.236 0 0 1 2.236 2.236zm2.648-10.69c-1.346 0-3.107.96-4.888 2.622-1.78-1.653-3.542-2.602-4.887-2.602-.41 0-.783.093-1.106.278-1.375.793-1.683 3.264-.973 6.365C1.98 8.917 0 10.42 0 12.004c0 1.59 1.99 3.097 5.043 4.03-.704 3.113-.39 5.588.988 6.38.32.187.69.275 1.102.275 1.345 0 3.107-.96 4.888-2.624 1.78 1.654 3.542 2.603 4.887 2.603.41 0 .783-.09 1.106-.275 1.374-.792 1.683-3.263.973-6.365C22.02 15.096 24 13.59 24 12.004c0-1.59-1.99-3.097-5.043-4.032.704-3.11.39-5.587-.988-6.38-.318-.184-.688-.277-1.092-.278zm-.005 1.09v.006c.225 0 .406.044.558.127.666.382.955 1.835.73 3.704-.054.46-.142.945-.25 1.44-.96-.236-2.006-.417-3.107-.534-.66-.905-1.345-1.727-2.035-2.447 1.592-1.48 3.087-2.292 4.105-2.295zm-9.77.02c1.012 0 2.514.808 4.11 2.28-.686.72-1.37 1.537-2.02 2.442-1.107.117-2.154.298-3.113.538-.112-.49-.195-.964-.254-1.42-.23-1.868.054-3.32.714-3.707.19-.09.4-.127.563-.132zm4.882 3.05c.455.468.91.992 1.36 1.564-.44-.02-.89-.034-1.345-.034-.46 0-.915.01-1.36.034.44-.572.895-1.096 1.345-1.565zM12 8.1c.74 0 1.477.034 2.202.093.406.582.802 1.203 1.183 1.86.372.64.71 1.29 1.018 1.946-.308.655-.646 1.31-1.013 1.95-.38.66-.773 1.288-1.18 1.87-.728.063-1.466.098-2.21.098-.74 0-1.477-.035-2.202-.093-.406-.582-.802-1.204-1.183-1.86-.372-.64-.71-1.29-1.018-1.946.303-.657.646-1.313 1.013-1.954.38-.66.773-1.286 1.18-1.868.728-.064 1.466-.098 2.21-.098zm-3.635.254c-.24.377-.48.763-.704 1.16-.225.39-.435.782-.635 1.174-.265-.656-.49-1.31-.676-1.947.64-.15 1.315-.283 2.015-.386zm7.26 0c.695.103 1.365.23 2.006.387-.18.632-.405 1.282-.66 1.933-.2-.39-.41-.783-.64-1.174-.225-.392-.465-.774-.705-1.146zm3.063.675c.484.15.944.317 1.375.498 1.732.74 2.852 1.708 2.852 2.476-.005.768-1.125 1.74-2.857 2.475-.42.18-.88.342-1.355.493-.28-.958-.646-1.956-1.1-2.98.45-1.017.81-2.01 1.085-2.964zm-13.395.004c.278.96.645 1.957 1.1 2.98-.45 1.017-.812 2.01-1.086 2.964-.484-.15-.944-.318-1.37-.5-1.732-.737-2.852-1.706-2.852-2.474 0-.768 1.12-1.742 2.852-2.476.42-.18.88-.342 1.356-.494zm11.678 4.28c.265.657.49 1.312.676 1.948-.64.157-1.316.29-2.016.39.24-.375.48-.762.705-1.158.225-.39.435-.788.636-1.18zm-9.945.02c.2.392.41.783.64 1.175.23.39.465.772.705 1.143-.695-.102-1.365-.23-2.006-.386.18-.63.406-1.282.66-1.933zM17.92 16.32c.112.493.2.968.254 1.423.23 1.868-.054 3.32-.714 3.708-.147.09-.338.128-.563.128-1.012 0-2.514-.807-4.11-2.28.686-.72 1.37-1.536 2.02-2.44 1.107-.118 2.154-.3 3.113-.54zm-11.83.01c.96.234 2.006.415 3.107.532.66.905 1.345 1.727 2.035 2.446-1.595 1.483-3.092 2.295-4.11 2.295-.22-.005-.406-.05-.553-.132-.666-.38-.955-1.834-.73-3.703.054-.46.142-.944.25-1.438zm4.56.64c.44.02.89.034 1.345.034.46 0 .915-.01 1.36-.034-.44.572-.895 1.095-1.345 1.565-.455-.47-.91-.993-1.36-1.565z"/></g><circle cx="0" cy="0" r="7" class="node" opacity=".72"/><text class="sans label" y="80" text-anchor="middle" font-size="18">React</text></g><g class="" style="animation-delay:2.2s" transform="translate(842 180)"><circle cx="0" cy="0" r="48" fill="#F9FCF8" stroke="#B9CCBE"/><g transform="translate(-18 -18) scale(1.5)"><path fill="#13743F" d="M7.508 0c-.287 0-.573 0-.86.002-.241.002-.483.003-.724.01-.132.003-.263.009-.395.015A9.154 9.154 0 0 0 4.348.15 5.492 5.492 0 0 0 2.85.645 5.04 5.04 0 0 0 .645 2.848c-.245.48-.4.972-.495 1.5-.093.52-.122 1.05-.136 1.576a35.2 35.2 0 0 0-.012.724C0 6.935 0 7.221 0 7.508v8.984c0 .287 0 .575.002.862.002.24.005.481.012.722.014.526.043 1.057.136 1.576.095.528.25 1.02.495 1.5a5.03 5.03 0 0 0 2.205 2.203c.48.244.97.4 1.498.495.52.093 1.05.124 1.576.138.241.007.483.009.724.01.287.002.573.002.86.002h8.984c.287 0 .573 0 .86-.002.241-.001.483-.003.724-.01a10.523 10.523 0 0 0 1.578-.138 5.322 5.322 0 0 0 1.498-.495 5.035 5.035 0 0 0 2.203-2.203c.245-.48.4-.972.495-1.5.093-.52.124-1.05.138-1.576.007-.241.009-.481.01-.722.002-.287.002-.575.002-.862V7.508c0-.287 0-.573-.002-.86a33.662 33.662 0 0 0-.01-.724 10.5 10.5 0 0 0-.138-1.576 5.328 5.328 0 0 0-.495-1.5A5.039 5.039 0 0 0 21.152.645 5.32 5.32 0 0 0 19.654.15a10.493 10.493 0 0 0-1.578-.138 34.98 34.98 0 0 0-.722-.01C17.067 0 16.779 0 16.492 0H7.508zm6.035 3.41c4.114 2.47 6.545 7.162 5.549 11.131-.024.093-.05.181-.076.272l.002.001c2.062 2.538 1.5 5.258 1.236 4.745-1.072-2.086-3.066-1.568-4.088-1.043a6.803 6.803 0 0 1-.281.158l-.02.012-.002.002c-2.115 1.123-4.957 1.205-7.812-.022a12.568 12.568 0 0 1-5.64-4.838c.649.48 1.35.902 2.097 1.252 3.019 1.414 6.051 1.311 8.197-.002C9.651 12.73 7.101 9.67 5.146 7.191a10.628 10.628 0 0 1-1.005-1.384c2.34 2.142 6.038 4.83 7.365 5.576C8.69 8.408 6.208 4.743 6.324 4.86c4.436 4.47 8.528 6.996 8.528 6.996.154.085.27.154.36.213.085-.215.16-.437.224-.668.708-2.588-.09-5.548-1.893-7.992z"/></g><circle cx="0" cy="0" r="7" class="node" opacity=".72"/><text class="sans label" y="80" text-anchor="middle" font-size="18">SwiftUI</text></g><g class="" style="animation-delay:2.75s" transform="translate(1004 255)"><circle cx="0" cy="0" r="48" fill="#F9FCF8" stroke="#B9CCBE"/><g transform="translate(-18 -18) scale(1.5)"><path fill="#13743F" d="M19.455 8.369c-.538-.748-1.778-2.285-3.681-4.569-.826-.991-1.535-1.832-1.884-2.245a146 146 0 0 0-.488-.576l-.207-.245-.113-.133-.022-.032-.01-.005L12.57 0l-.609.488c-1.555 1.246-2.828 2.851-3.681 4.64-.523 1.064-.864 2.105-1.043 3.176-.047.241-.088.489-.121.738-.209-.017-.421-.028-.632-.033-.018-.001-.035-.002-.059-.003a7.46 7.46 0 0 0-2.28.274l-.317.089-.163.286c-.765 1.342-1.198 2.869-1.252 4.416-.07 2.01.477 3.954 1.583 5.625 1.082 1.633 2.61 2.882 4.42 3.611l.236.095.071.025.003-.001a9.59 9.59 0 0 0 2.941.568q.171.006.342.006c1.273 0 2.513-.249 3.69-.742l.008.004.313-.145a9.63 9.63 0 0 0 3.927-3.335c1.01-1.49 1.577-3.234 1.641-5.042.075-2.161-.643-4.304-2.133-6.371m-7.083 6.695c.328 1.244.264 2.44-.191 3.558-1.135-1.12-1.967-2.352-2.475-3.665-.543-1.404-.87-2.74-.974-3.975.48.157.922.366 1.315.622 1.132.737 1.914 1.902 2.325 3.461zm.207 6.022c.482.368.99.712 1.513 1.028-.771.21-1.565.302-2.369.273a8 8 0 0 1-.373-.022c.458-.394.869-.823 1.228-1.279zm1.347-6.431c-.516-1.957-1.527-3.437-3.002-4.398-.647-.421-1.385-.741-2.194-.95.011-.134.026-.268.043-.4.014-.113.03-.216.046-.313.133-.689.332-1.37.589-2.025.099-.25.206-.499.321-.74l.004-.008c.177-.358.376-.719.61-1.105l.092-.152-.003-.001c.544-.851 1.197-1.627 1.942-2.311l.288.341c.672.796 1.304 1.548 1.878 2.237 1.291 1.549 2.966 3.583 3.612 4.48 1.277 1.771 1.893 3.579 1.83 5.375-.049 1.395-.461 2.755-1.195 3.933-.694 1.116-1.661 2.05-2.8 2.708-.636-.318-1.559-.839-2.539-1.599.79-1.575.952-3.28.479-5.072zm-2.575 5.397c-.725.939-1.587 1.55-2.09 1.856-.081-.029-.163-.06-.243-.093l-.065-.026c-1.49-.616-2.747-1.656-3.635-3.01-.907-1.384-1.356-2.993-1.298-4.653.041-1.19.338-2.327.882-3.379.316-.07.638-.114.96-.131l.084-.002c.162-.003.324-.003.478 0 .227.011.454.035.677.07.073 1.513.445 3.145 1.105 4.852.637 1.644 1.694 3.162 3.144 4.515z"/></g><circle cx="0" cy="0" r="7" class="node" opacity=".72"/><text class="sans label" y="80" text-anchor="middle" font-size="18">Firebase</text></g><g class="" style="animation-delay:3.3000000000000003s" transform="translate(1196 180)"><circle cx="0" cy="0" r="48" fill="#F9FCF8" stroke="#B9CCBE"/><g transform="translate(-18 -18) scale(1.5)"><path fill="#13743F" d="m4.7144 15.9555 4.7174-2.6471.079-.2307-.079-.1275h-.2307l-.7893-.0486-2.6956-.0729-2.3375-.0971-2.2646-.1214-.5707-.1215-.5343-.7042.0546-.3522.4797-.3218.686.0608 1.5179.1032 2.2767.1578 1.6514.0972 2.4468.255h.3886l.0546-.1579-.1336-.0971-.1032-.0972L6.973 9.8356l-2.55-1.6879-1.3356-.9714-.7225-.4918-.3643-.4614-.1578-1.0078.6557-.7225.8803.0607.2246.0607.8925.686 1.9064 1.4754 2.4893 1.8336.3643.3035.1457-.1032.0182-.0728-.164-.2733-1.3539-2.4467-1.445-2.4893-.6435-1.032-.17-.6194c-.0607-.255-.1032-.4674-.1032-.7285L6.287.1335 6.6997 0l.9957.1336.419.3642.6192 1.4147 1.0018 2.2282 1.5543 3.0296.4553.8985.2429.8318.091.255h.1579v-.1457l.1275-1.706.2368-2.0947.2307-2.6957.0789-.7589.3764-.9107.7468-.4918.5828.2793.4797.686-.0668.4433-.2853 1.8517-.5586 2.9021-.3643 1.9429h.2125l.2429-.2429.9835-1.3053 1.6514-2.0643.7286-.8196.85-.9046.5464-.4311h1.0321l.759 1.1293-.34 1.1657-1.0625 1.3478-.8804 1.1414-1.2628 1.7-.7893 1.36.0729.1093.1882-.0183 2.8535-.607 1.5421-.2794 1.8396-.3157.8318.3886.091.3946-.3278.8075-1.967.4857-2.3072.4614-3.4364.8136-.0425.0304.0486.0607 1.5482.1457.6618.0364h1.621l3.0175.2247.7892.522.4736.6376-.079.4857-1.2142.6193-1.6393-.3886-3.825-.9107-1.3113-.3279h-.1822v.1093l1.0929 1.0686 2.0035 1.8092 2.5075 2.3314.1275.5768-.3218.4554-.34-.0486-2.2039-1.6575-.85-.7468-1.9246-1.621h-.1275v.17l.4432.6496 2.3436 3.5214.1214 1.0807-.17.3521-.6071.2125-.6679-.1214-1.3721-1.9246L14.38 17.959l-1.1414-1.9428-.1397.079-.674 7.2552-.3156.3703-.7286.2793-.6071-.4614-.3218-.7468.3218-1.4753.3886-1.9246.3157-1.53.2853-1.9004.17-.6314-.0121-.0425-.1397.0182-1.4328 1.9672-2.1796 2.9446-1.7243 1.8456-.4128.164-.7164-.3704.0667-.6618.4008-.5889 2.386-3.0357 1.4389-1.882.929-1.0868-.0062-.1579h-.0546l-6.3385 4.1164-1.1293.1457-.4857-.4554.0608-.7467.2307-.2429 1.9064-1.3114Z"/></g><circle cx="0" cy="0" r="7" class="node" opacity=".72"/><text class="sans label" y="80" text-anchor="middle" font-size="18">Claude</text></g><g class="" style="animation-delay:3.8500000000000005s" transform="translate(1330 260)"><circle cx="0" cy="0" r="48" fill="#F9FCF8" stroke="#B9CCBE"/><g transform="translate(-19 -19) scale(2.35)"><path fill="#13743F" d="M14.949 6.547a3.94 3.94 0 0 0-.348-3.273 4.11 4.11 0 0 0-4.4-1.934A4.1 4.1 0 0 0 8.423.2 4.15 4.15 0 0 0 6.305.086a4.1 4.1 0 0 0-1.891.948 4.04 4.04 0 0 0-1.158 1.753 4.1 4.1 0 0 0-1.563.679A4 4 0 0 0 .554 4.72a3.99 3.99 0 0 0 .502 4.731 3.94 3.94 0 0 0 .346 3.274 4.11 4.11 0 0 0 4.402 1.933c.382.425.852.764 1.377.995.526.231 1.095.35 1.67.346 1.78.002 3.358-1.132 3.901-2.804a4.1 4.1 0 0 0 1.563-.68 4 4 0 0 0 1.14-1.253 3.99 3.99 0 0 0-.506-4.716m-6.097 8.406a3.05 3.05 0 0 1-1.945-.694l.096-.054 3.23-1.838a.53.53 0 0 0 .265-.455v-4.49l1.366.778q.02.011.025.035v3.722c-.003 1.653-1.361 2.992-3.037 2.996m-6.53-2.75a2.95 2.95 0 0 1-.36-2.01l.095.057L5.29 12.09a.53.53 0 0 0 .527 0l3.949-2.246v1.555a.05.05 0 0 1-.022.041L6.473 13.3c-1.454.826-3.311.335-4.15-1.098m-.85-6.94A3.02 3.02 0 0 1 3.07 3.949v3.785a.51.51 0 0 0 .262.451l3.93 2.237-1.366.779a.05.05 0 0 1-.048 0L2.585 9.342a2.98 2.98 0 0 1-1.113-4.094zm11.216 2.571L8.747 5.576l1.362-.776a.05.05 0 0 1 .048 0l3.265 1.86a3 3 0 0 1 1.173 1.207 2.96 2.96 0 0 1-.27 3.2 3.05 3.05 0 0 1-1.36.997V8.279a.52.52 0 0 0-.276-.445m1.36-2.015-.097-.057-3.226-1.855a.53.53 0 0 0-.53 0L6.249 6.153V4.598a.04.04 0 0 1 .019-.04L9.533 2.7a3.07 3.07 0 0 1 3.257.139c.474.325.843.778 1.066 1.303.223.526.289 1.103.191 1.664zM5.503 8.575 4.139 7.8a.05.05 0 0 1-.026-.037V4.049c0-.57.166-1.127.476-1.607s.752-.864 1.275-1.105a3.08 3.08 0 0 1 3.234.41l-.096.054-3.23 1.838a.53.53 0 0 0-.265.455zm.742-1.577 1.758-1 1.762 1v2l-1.755 1-1.762-1z"/></g><circle cx="0" cy="0" r="7" class="node" opacity=".72"/><text class="sans label" y="80" text-anchor="middle" font-size="18">Codex</text></g><g class="" style="animation-delay:4.4s" transform="translate(1464 180)"><circle cx="0" cy="0" r="48" fill="#F9FCF8" stroke="#B9CCBE"/><g transform="translate(-18 -18) scale(1.5)"><path fill="#13743F" d="M12 .297c-6.63 0-12 5.373-12 12 0 5.303 3.438 9.8 8.205 11.385.6.113.82-.258.82-.577 0-.285-.01-1.04-.015-2.04-3.338.724-4.042-1.61-4.042-1.61C4.422 18.07 3.633 17.7 3.633 17.7c-1.087-.744.084-.729.084-.729 1.205.084 1.838 1.236 1.838 1.236 1.07 1.835 2.809 1.305 3.495.998.108-.776.417-1.305.76-1.605-2.665-.3-5.466-1.332-5.466-5.93 0-1.31.465-2.38 1.235-3.22-.135-.303-.54-1.523.105-3.176 0 0 1.005-.322 3.3 1.23.96-.267 1.98-.399 3-.405 1.02.006 2.04.138 3 .405 2.28-1.552 3.285-1.23 3.285-1.23.645 1.653.24 2.873.12 3.176.765.84 1.23 1.91 1.23 3.22 0 4.61-2.805 5.625-5.475 5.92.42.36.81 1.096.81 2.22 0 1.606-.015 2.896-.015 3.286 0 .315.21.69.825.57C20.565 22.092 24 17.592 24 12.297c0-6.627-5.373-12-12-12"/></g><circle cx="0" cy="0" r="7" class="node" opacity=".72"/><text class="sans label" y="80" text-anchor="middle" font-size="18">GitHub</text></g>
<g transform="translate(1180 490)"><path class="panel" d="M16 0H330L346 16V70L330 86H16L0 70V16Z"/><text class="mono" x="32" y="54" font-size="22" fill="#95F5B4">EVIDENCE RECORDED</text></g>
</svg>