<svg xmlns="http://www.w3.org/2000/svg" width="3200" height="1800" viewBox="0 0 3200 1800" role="img" aria-labelledby="title desc">
<title id="title">Yash Kanadhia Product Designer animated GitHub banner</title>
<desc id="desc">Minimal light AlienTech banner with orbital motion, living project cards, capability modules, and a calm animated tool rail. Motion reduces automatically when the user prefers reduced motion.</desc>
<defs>
  <radialGradient id="bg" cx="24%" cy="38%" r="85%"><stop offset="0" stop-color="#ffffff"/><stop offset=".62" stop-color="#fbfcf9"/><stop offset="1" stop-color="#f4f7f1"/></radialGradient>
  <radialGradient id="core" cx="50%" cy="50%" r="50%"><stop offset="0" stop-color="#efffe8" stop-opacity=".98"/><stop offset=".28" stop-color="#9ddf75" stop-opacity=".9"/><stop offset=".62" stop-color="#5da53b" stop-opacity=".35"/><stop offset="1" stop-color="#5da53b" stop-opacity="0"/></radialGradient>
  <linearGradient id="sweep" x1="0" x2="1"><stop offset="0" stop-color="#7dcf51" stop-opacity="0"/><stop offset=".48" stop-color="#7dcf51" stop-opacity="0"/><stop offset=".5" stop-color="#dfffd1" stop-opacity=".82"/><stop offset=".52" stop-color="#7dcf51" stop-opacity="0"/><stop offset="1" stop-color="#7dcf51" stop-opacity="0"/></linearGradient>
  <filter id="glow" x="-150%" y="-150%" width="400%" height="400%"><feGaussianBlur stdDeviation="16" result="b"/><feColorMatrix in="b" type="matrix" values="0 0 0 0 .31 0 0 0 0 .58 0 0 0 0 .18 0 0 0 .7 0"/><feMerge><feMergeNode/><feMergeNode in="SourceGraphic"/></feMerge></filter>
  <filter id="soft" x="-100%" y="-100%" width="300%" height="300%"><feGaussianBlur stdDeviation="5" result="b"/><feMerge><feMergeNode in="b"/><feMergeNode in="SourceGraphic"/></feMerge></filter>
  <clipPath id="zClip"><rect x="1640" y="210" width="1410" height="500" rx="34"/></clipPath><clipPath id="pClip"><rect x="1640" y="760" width="1410" height="500" rx="34"/></clipPath><clipPath id="railClip"><rect x="170" y="1608" width="2860" height="142" rx="66"/></clipPath>
  <path id="orbit1" d="M340 700a590 590 0 1 0 1180 0a590 590 0 1 0-1180 0"/><path id="orbit2" d="M250 700a680 680 0 1 0 1360 0a680 680 0 1 0-1360 0"/><path id="signal1" d="M1650 714 C1950 714 2110 724 2350 714 S2780 700 3050 710"/><path id="signal2" d="M1650 1260 C1920 1260 2100 1270 2310 1260 S2780 1245 3050 1255"/><path id="signal3" d="M180 1690 C710 1678 1120 1710 1590 1692 S2520 1686 3025 1692"/>
</defs>
<style>
.txt{font-family:Inter,system-ui,-apple-system,BlinkMacSystemFont,"Segoe UI",sans-serif;fill:#111d18}.mono{font-family:"JetBrains Mono","SFMono-Regular",Consolas,monospace}.muted{fill:#435047}.accent{fill:#4f7d42}.line{stroke:#8ca588;stroke-width:2;fill:none}.hair{stroke:#aebdac;stroke-width:1.5;fill:none}.card{fill:#fff;fill-opacity:.74;stroke:#9fb69b;stroke-width:2}.orbit{fill:none;stroke:#7fa174;stroke-width:2;opacity:.22;transform-box:fill-box;transform-origin:center}.o1{stroke-dasharray:4 26 2 42;animation:rot 28s linear infinite,breath 8s ease-in-out infinite}.o2{stroke-dasharray:2 34 8 58;animation:rotBack 36s linear infinite,breath 11s ease-in-out infinite reverse}.o3{stroke-dasharray:84 26 4 34;animation:dash 18s linear infinite,breath 13s ease-in-out infinite}.core{transform-box:fill-box;transform-origin:center;animation:pulse 4.8s ease-in-out infinite}.node{animation:node 3.3s ease-in-out infinite}.n2{animation-delay:-1.1s}.n3{animation-delay:-2.1s}.n4{animation-delay:-.45s}.borderLive{fill:none;stroke:#77b95a;stroke-width:3;opacity:.05;animation:border 7s ease-in-out infinite}.borderLive.b2{animation-delay:-3.2s}.sweep{animation:sweep 10s cubic-bezier(.45,0,.55,1) infinite}.sweep.b2{animation-delay:-4.7s}.railSweep{animation:rail 13s cubic-bezier(.45,0,.55,1) infinite}.blink{animation:blink 1.2s steps(2,end) infinite}.twinkle{animation:twinkle 5.5s ease-in-out infinite}.t2{animation-delay:-1.8s}.t3{animation-delay:-3.7s}@keyframes rot{to{transform:rotate(360deg)}}@keyframes rotBack{to{transform:rotate(-360deg)}}@keyframes dash{to{stroke-dashoffset:-430}}@keyframes breath{0%,100%{opacity:.1}50%{opacity:.34}}@keyframes pulse{0%,100%{transform:scale(.9);opacity:.38}45%{transform:scale(1.16);opacity:.8}60%{transform:scale(1.04);opacity:.6}}@keyframes node{0%,100%{opacity:.2}50%{opacity:.95}}@keyframes border{0%,100%{opacity:.04}50%{opacity:.3}}@keyframes sweep{0%,18%{transform:translateX(-1800px);opacity:0}28%{opacity:.58}48%{transform:translateX(1750px);opacity:.3}58%,100%{transform:translateX(1750px);opacity:0}}@keyframes rail{0%,16%{transform:translateX(-3000px);opacity:0}25%{opacity:.5}55%{transform:translateX(3200px);opacity:.25}65%,100%{transform:translateX(3200px);opacity:0}}@keyframes blink{0%,42%{opacity:.8}43%,100%{opacity:.08}}@keyframes twinkle{0%,100%{opacity:.08;transform:scale(.7)}50%{opacity:.7;transform:scale(1.25)}}@media(prefers-reduced-motion:reduce){.o1,.o2,.o3,.core,.node,.borderLive,.sweep,.railSweep,.blink,.twinkle{animation:none!important}.o1,.o2,.o3{opacity:.14}.core{opacity:.3}.sweep,.railSweep,.twinkle{display:none}}
</style>
<rect width="3200" height="1800" fill="url(#bg)"/><rect x="1" y="1" width="3198" height="1798" rx="22" fill="none" stroke="#d5ded2" stroke-width="2"/>
<g aria-hidden="true"><circle class="orbit o1" cx="930" cy="700" r="555"/><circle class="orbit o2" cx="930" cy="700" r="640"/><circle class="orbit o3" cx="930" cy="700" r="475"/><path class="hair" d="M160 700H1585M930 70V1330" opacity=".26"/><path class="hair" d="M170 260V1140M112 700H220" opacity=".34"/><g class="core" filter="url(#glow)"><circle cx="355" cy="700" r="118" fill="url(#core)"/><circle cx="355" cy="700" r="40" fill="#efffe8" opacity=".68"/><circle cx="355" cy="700" r="10" fill="#5da53b"/></g><circle class="node" cx="930" cy="92" r="8" fill="#79b759" filter="url(#soft)"/><circle class="node n2" cx="1510" cy="700" r="8" fill="#79b759" filter="url(#soft)"/><circle class="node n3" cx="930" cy="1294" r="8" fill="#79b759" filter="url(#soft)"/><circle class="node n4" cx="355" cy="700" r="9" fill="#a4dd7c" filter="url(#soft)"/><circle r="7" fill="#e5ffda" filter="url(#soft)"><animateMotion dur="11s" repeatCount="indefinite"><mpath href="#orbit1"/></animateMotion></circle><circle r="5" fill="#75b94e" filter="url(#soft)"><animateMotion dur="16s" begin="-5s" repeatCount="indefinite"><mpath href="#orbit2"/></animateMotion></circle></g>
<g class="txt"><text x="930" y="485" text-anchor="middle" font-size="92" font-weight="650" letter-spacing="13">YASH KANADHIA</text><text x="930" y="575" text-anchor="middle" font-size="46" font-weight="500" letter-spacing="18" class="accent">PRODUCT DESIGNER</text><g transform="translate(690 626)"><path d="M18 0c-20 0-36 16-36 36 0 28 36 62 36 62s36-34 36-62C54 16 38 0 18 0zm0 50a14 14 0 1 1 0-28 14 14 0 0 1 0 28z" transform="scale(.45)" fill="#5f934d"/><text x="50" y="25" font-size="31" letter-spacing="3" class="muted">Toronto, Ontario, Canada</text></g><line x1="640" y1="705" x2="1220" y2="705" class="hair"/><circle cx="930" cy="705" r="7" fill="#6aa04f"/><text x="930" y="795" text-anchor="middle" font-size="31" font-weight="520" letter-spacing="8">AI PRODUCTS · MOBILE PRODUCTS</text><text x="930" y="850" text-anchor="middle" font-size="31" font-weight="520" letter-spacing="8">UX SYSTEMS · WORKING PROTOTYPES</text><g fill="#5f934d"><circle cx="900" cy="912" r="4"/><circle cx="920" cy="912" r="4"/><circle cx="940" cy="912" r="4"/><circle cx="960" cy="912" r="4"/></g><text x="930" y="1015" text-anchor="middle" font-size="38" font-weight="430">I design and build systems</text><text x="930" y="1074" text-anchor="middle" font-size="38" font-weight="430">that connect people to outcomes.</text></g>
<g><rect class="card" x="1640" y="210" width="1410" height="500" rx="34"/><rect class="card" x="1640" y="760" width="1410" height="500" rx="34"/><rect class="borderLive" x="1640" y="210" width="1410" height="500" rx="34"/><rect class="borderLive b2" x="1640" y="760" width="1410" height="500" rx="34"/><g clip-path="url(#zClip)" opacity=".56"><rect class="sweep" x="1450" y="170" width="900" height="620" fill="url(#sweep)" transform="skewX(-17)"/></g><g clip-path="url(#pClip)" opacity=".48"><rect class="sweep b2" x="1450" y="720" width="900" height="620" fill="url(#sweep)" transform="skewX(-17)"/></g><circle cx="1792" cy="355" r="90" fill="#fbfdf9" stroke="#aec0aa" stroke-width="2"/><circle cx="1792" cy="355" r="50" class="line" stroke-dasharray="4 12"/><g stroke="#5d9349" stroke-width="4" fill="#fff"><line x1="1760" y1="330" x2="1825" y2="375"/><line x1="1760" y1="380" x2="1825" y2="330"/><circle cx="1760" cy="330" r="7"/><circle cx="1825" cy="375" r="7"/><circle cx="1760" cy="380" r="7"/><circle cx="1825" cy="330" r="7"/><circle cx="1792" cy="355" r="8"/></g><text class="txt" x="1945" y="350" font-size="60" font-weight="650" letter-spacing="7">ZEREF</text><text class="txt muted" x="1945" y="430" font-size="31">AI context, memory,</text><text class="txt muted" x="1945" y="480" font-size="31">privacy and evaluation</text><rect x="2350" y="300" width="610" height="310" rx="22" fill="#fbfcfa" stroke="#c3cfc1" stroke-width="2"/><g class="txt mono" font-size="27"><text x="2415" y="365"><tspan fill="#4f7d42">zeref</tspan><tspan> = {</tspan></text><text x="2465" y="430">context: <tspan fill="#4f7d42">"inspectable"</tspan>,</text><text x="2465" y="485">memory: <tspan fill="#4f7d42">"guarded"</tspan>,</text><text x="2465" y="540">handoffs: <tspan fill="#4f7d42">"cross-tool"</tspan></text><text x="2415" y="585">}</text></g><rect class="blink" x="2865" y="555" width="3" height="27" rx="1.5" fill="#4f942e"/><circle cx="1792" cy="905" r="90" fill="#fbfdf9" stroke="#aec0aa" stroke-width="2"/><g fill="#5d9349"><rect x="1750" y="915" width="10" height="24" rx="2"/><rect x="1772" y="893" width="10" height="46" rx="2"/><rect x="1794" y="868" width="10" height="71" rx="2"/><rect x="1816" y="835" width="10" height="104" rx="2"/></g><path d="M1747 887 C1770 880 1784 867 1800 858 S1828 840 1840 816" class="line" stroke-width="4"/><text class="txt" x="1945" y="900" font-size="60" font-weight="650" letter-spacing="7">PERFIN OS</text><text class="txt muted" x="1945" y="980" font-size="31">Personal finance workflows,</text><text class="txt muted" x="1945" y="1030" font-size="31">guest and authenticated experiences</text><rect x="2350" y="850" width="610" height="330" rx="22" fill="#fbfcfa" stroke="#c3cfc1" stroke-width="2"/><g class="txt mono" font-size="25"><text x="2415" y="910">perfinOS = {</text><text x="2450" y="965">platform: <tspan fill="#4f7d42">"React Native + Firebase"</tspan>,</text><text x="2450" y="1020">locationAware: <tspan fill="#4f7d42">"contextual insights</tspan></text><text x="2450" y="1068"><tspan fill="#4f7d42">based on where you are"</tspan>,</text><text x="2450" y="1122">quality: <tspan fill="#4f7d42">"clear financial states"</tspan></text><text x="2415" y="1160">}</text></g><rect class="blink" x="2878" y="1130" width="3" height="27" rx="1.5" fill="#4f942e" style="animation-delay:-.55s"/><circle class="twinkle" cx="3010" cy="245" r="5" fill="#86ca62" filter="url(#soft)"/><circle class="twinkle t2" cx="3010" cy="795" r="5" fill="#86ca62" filter="url(#soft)"/><circle class="twinkle t3" cx="1620" cy="1260" r="5" fill="#86ca62" filter="url(#soft)"/><circle r="6" fill="#dfffd1" filter="url(#soft)"><animateMotion dur="12s" repeatCount="indefinite"><mpath href="#signal1"/></animateMotion></circle><circle r="6" fill="#dfffd1" filter="url(#soft)"><animateMotion dur="14s" begin="-7s" repeatCount="indefinite"><mpath href="#signal2"/></animateMotion></circle></g>
<g class="txt"><rect class="card" x="220" y="1315" width="890" height="250" rx="30"/><rect class="card" x="1160" y="1315" width="890" height="250" rx="30"/><rect class="card" x="2100" y="1315" width="890" height="250" rx="30"/><circle cx="365" cy="1440" r="72" fill="#fbfdf9" stroke="#acbfa8" stroke-width="2"/><path d="M365 1380l-22 28 12 25-18 35h56l-18-35 12-25z" class="line" stroke-width="4"/><circle cx="365" cy="1410" r="6" fill="#5d9349"/><text x="505" y="1425" font-size="38" font-weight="650" letter-spacing="4">PRODUCT DESIGN</text><text x="505" y="1495" font-size="29" class="muted">Flows · Interaction · Accessibility</text><circle cx="1305" cy="1440" r="72" fill="#fbfdf9" stroke="#acbfa8" stroke-width="2"/><path d="M1305 1384c-22-18-52 1-44 28-21 6-23 38-3 48-4 28 30 40 49 22 18 17 52 5 48-22 21-9 18-42-4-48 8-28-23-45-46-28z" class="line" stroke-width="4"/><path d="M1305 1388v105M1276 1420h58M1278 1460h56" class="line" stroke-width="3"/><text x="1445" y="1425" font-size="38" font-weight="650" letter-spacing="4">AI PRODUCTS</text><text x="1445" y="1495" font-size="29" class="muted">Context · Trust · Evaluation</text><circle cx="2245" cy="1440" r="72" fill="#fbfdf9" stroke="#acbfa8" stroke-width="2"/><path d="M2245 1387l55 27-55 27-55-27zM2190 1440l55 27 55-27M2190 1464l55 27 55-27" class="line" stroke-width="4"/><text x="2385" y="1425" font-size="38" font-weight="650" letter-spacing="4">WORKING PROTOTYPES</text><text x="2385" y="1495" font-size="29" class="muted">Mobile · Web · System behavior</text></g>
<g class="txt"><rect class="card" x="170" y="1608" width="2860" height="142" rx="66"/><g clip-path="url(#railClip)" opacity=".5"><rect class="railSweep" x="-500" y="1590" width="1200" height="190" fill="url(#sweep)" transform="skewX(-14)"/></g><circle cx="170" cy="1679" r="10" fill="#fff" stroke="#6e9e59" stroke-width="3"/><circle cx="3030" cy="1679" r="10" fill="#fff" stroke="#6e9e59" stroke-width="3"/><g transform="translate(250 1642)"><g fill="none" stroke="#2f5e37" stroke-width="4"><circle cx="12" cy="10" r="9"/><circle cx="30" cy="10" r="9"/><circle cx="12" cy="28" r="9"/><circle cx="30" cy="28" r="9"/><circle cx="12" cy="46" r="9"/></g><text x="55" y="38" font-size="28">Figma</text></g><circle cx="495" cy="1679" r="4" fill="#5d9349"/><g transform="translate(545 1644)"><g fill="none" stroke="#2f5e37" stroke-width="4"><rect x="0" y="0" width="20" height="20" rx="3"/><rect x="28" y="0" width="20" height="20" rx="3"/><rect x="0" y="28" width="20" height="20" rx="3"/><rect x="28" y="28" width="20" height="20" rx="3"/></g><text x="72" y="37" font-size="28">UX Systems</text></g><circle cx="850" cy="1679" r="4" fill="#5d9349"/><g transform="translate(895 1643)"><g fill="none" stroke="#2f5e37" stroke-width="3"><ellipse cx="25" cy="25" rx="24" ry="9"/><ellipse cx="25" cy="25" rx="24" ry="9" transform="rotate(60 25 25)"/><ellipse cx="25" cy="25" rx="24" ry="9" transform="rotate(120 25 25)"/><circle cx="25" cy="25" r="4" fill="#2f5e37"/></g><text x="68" y="38" font-size="28">React Native</text></g><circle cx="1270" cy="1679" r="4" fill="#5d9349"/><g transform="translate(1310 1642)"><g fill="none" stroke="#2f5e37" stroke-width="4"><path d="M2 10l24-8 24 8-24 8zM2 26l24-8 24 8-24 8zM2 42l24-8 24 8-24 8z"/></g><text x="72" y="39" font-size="28">Full Stack</text></g><circle cx="1620" cy="1679" r="4" fill="#5d9349"/><g transform="translate(1660 1643)"><g fill="none" stroke="#2f5e37" stroke-width="3"><ellipse cx="25" cy="25" rx="24" ry="9"/><ellipse cx="25" cy="25" rx="24" ry="9" transform="rotate(60 25 25)"/><ellipse cx="25" cy="25" rx="24" ry="9" transform="rotate(120 25 25)"/><circle cx="25" cy="25" r="4" fill="#2f5e37"/></g><text x="68" y="38" font-size="28">React</text></g><circle cx="1870" cy="1679" r="4" fill="#5d9349"/><g transform="translate(1910 1643)"><path d="M22 52L2 30 10 0l12 20L32 2l13 28z" fill="none" stroke="#2f5e37" stroke-width="4"/><text x="68" y="38" font-size="28">Firebase</text></g><circle cx="2165" cy="1679" r="4" fill="#5d9349"/><g transform="translate(2205 1643)"><g stroke="#2f5e37" stroke-width="3"><path d="M25 0v50M0 25h50M7 7l36 36M43 7L7 43M14 2l22 46M2 14l46 22M36 2L14 48M48 14L2 36"/></g><text x="70" y="38" font-size="28">Claude</text></g><circle cx="2460" cy="1679" r="4" fill="#5d9349"/><g transform="translate(2500 1643)"><path d="M25 0l22 12v26L25 50 3 38V12zM16 19l9-5 9 5v12l-9 5-9-5z" fill="none" stroke="#2f5e37" stroke-width="4"/><text x="70" y="38" font-size="28">Codex</text></g><circle cx="2735" cy="1679" r="4" fill="#5d9349"/><g transform="translate(2775 1643)"><circle cx="24" cy="23" r="20" fill="#1b2c22"/><path d="M12 38c0-7 4-10 12-10s12 3 12 10" fill="#fff"/><circle cx="17" cy="21" r="2" fill="#fff"/><circle cx="31" cy="21" r="2" fill="#fff"/><text x="60" y="38" font-size="28">GitHub</text></g><circle r="5" fill="#dfffd1" filter="url(#soft)"><animateMotion dur="18s" begin="-9s" repeatCount="indefinite"><mpath href="#signal3"/></animateMotion></circle></g>
</svg>