<?xml version="1.0" encoding="UTF-8"?>
<svg xmlns="http://www.w3.org/2000/svg" width="1600" height="900" viewBox="0 0 1600 900" role="img" aria-labelledby="title desc">
<title id="title">Yash Kanadhia Organic AlienTech motion hero</title>
<desc id="desc">Profile hero for Yash Kanadhia with locked identity, Zeref and PerFin OS panels, three profile metrics, nine tools, a restrained system glyph, and a central iris motif.</desc>
<defs>
  <linearGradient id="mineralWash" x1="0" y1="0" x2="1" y2="1"><stop stop-color="#F5F8F4"/><stop offset=".62" stop-color="#E9F0EA"/><stop offset="1" stop-color="#DCE8DE"/></linearGradient>
  <linearGradient id="bioPanel" x1="0" y1="0" x2="1" y2="1"><stop stop-color="#06110B"/><stop offset=".58" stop-color="#0A1A11"/><stop offset="1" stop-color="#102419"/></linearGradient>
  <radialGradient id="irisGlow" cx="50%" cy="50%" r="56%"><stop stop-color="#102419"/><stop offset=".68" stop-color="#06110B"/><stop offset="1" stop-color="#53E786" stop-opacity=".16"/></radialGradient>

  <style>
  :root{--mineral-bg:#F5F8F4;--mineral-surface:#E9F0EA;--mineral-line:#B9CCBE;--bio-void:#06110B;--bio-panel:#0A1A11;--bio-panel-2:#102419;--ink-primary:#13241A;--ink-secondary:#496255;--ink-on-dark:#EAF7EE;--signal-deep:#13743F;--signal:#53E786;--signal-soft:#95F5B4}
  .sans{font-family:Inter,Arial,system-ui,sans-serif}.mono{font-family:SFMono-Regular,Consolas,"Liberation Mono",monospace}.title{letter-spacing:.02em}.small{letter-spacing:.12em}.micro{letter-spacing:.16em}
  .panel{fill:#0A1A11;stroke:#B9CCBE;stroke-width:1.4}.shell{fill:#F5F8F4;stroke:#13743F;stroke-width:1.5}.label{fill:#13241A}.muted{fill:#496255}.darkText{fill:#EAF7EE}.signal{stroke:#53E786;fill:none;stroke-linecap:round;stroke-linejoin:round}.softSignal{stroke:#95F5B4;fill:none;stroke-linecap:round;stroke-linejoin:round}.line{stroke:#B9CCBE;fill:none;stroke-linecap:round}.node{fill:#95F5B4;stroke:#13743F;stroke-width:1.2}

  .breathe{animation:breathe 8s cubic-bezier(.42,0,.2,1) infinite}.seed{animation:seed 10s cubic-bezier(.42,0,.2,1) infinite}.signalPath{stroke-dasharray:12 26;animation:dash 8s linear infinite}.signalPathSlow{stroke-dasharray:8 34;animation:dash 13s linear infinite}.irisA{transform-origin:center;animation:spinA 14s linear infinite}.irisB{transform-origin:center;animation:spinB 18s linear infinite}.wake{animation:wake 14s cubic-bezier(.42,0,.2,1) infinite}.stagePulse{animation:stagePulse 12s cubic-bezier(.42,0,.2,1) infinite}.toolPulse{animation:toolPulse 10s cubic-bezier(.42,0,.2,1) infinite}.trace{stroke-dasharray:0 700;animation:trace 14s cubic-bezier(.42,0,.2,1) infinite}
  @keyframes breathe{0%,100%{opacity:.82}50%{opacity:1}}@keyframes seed{0%,100%{opacity:.35;transform:translateX(0)}45%{opacity:1;transform:translateX(14px)}70%{opacity:.65;transform:translateX(0)}}@keyframes dash{to{stroke-dashoffset:-152}}@keyframes spinA{to{transform:rotate(360deg)}}@keyframes spinB{to{transform:rotate(-360deg)}}@keyframes wake{0%,8%,100%{opacity:.48;transform:scale(1)}14%,20%{opacity:1;transform:scale(1.025)}}@keyframes stagePulse{0%,100%{opacity:.62}12%,20%{opacity:1}36%,44%{opacity:1}60%,68%{opacity:1}}@keyframes toolPulse{0%,100%{opacity:.62}16%,22%{opacity:1}38%,44%{opacity:1}62%,70%{opacity:1}82%,90%{opacity:1}}@keyframes trace{0%,11%{stroke-dasharray:0 700}78%,100%{stroke-dasharray:700 0}}
  @media (prefers-reduced-motion: reduce){.breathe,.seed,.signalPath,.signalPathSlow,.irisA,.irisB,.wake,.stagePulse,.toolPulse,.trace{animation:none!important;transform:none!important;opacity:1!important}}
</style>
</defs>

<rect width="1600" height="900" fill="url(#mineralWash)"/>
<path class="shell" d="M34 34H450L468 54H1134L1152 34H1566V866H34Z" opacity=".92"/>
<path class="line" d="M72 96C264 84 382 124 500 238S760 286 910 220s288-70 468 16" opacity=".42"/>
<g transform="translate(82 110)">
  <path d="M0 0H478L510 32V424L478 456H0Z" fill="#F9FCF8" stroke="#B9CCBE"/>
  <g class="wake" transform="translate(28 28)">
    <path d="M18 0C8 4 0 15 0 29c0 20 18 35 18 35s18-15 18-35C36 15 28 4 18 0Z" fill="none" stroke="#13743F" stroke-width="2"/>
    <circle cx="12" cy="28" r="3" fill="#13743F"/><circle cx="24" cy="28" r="3" fill="#13743F"/><path d="M10 43c6 5 10 5 16 0" class="signal" stroke-width="2"/>
  </g>
  <text class="sans title label" x="28" y="142" font-size="68" font-weight="650">Yash Kanadhia</text>
  <text class="sans small" x="31" y="190" font-size="24" fill="#13743F" font-weight="650">Product Designer</text>
  <text class="sans muted" x="31" y="236" font-size="25">Toronto, Ontario, Canada</text>
  <path d="M31 280H122" class="signal" stroke-width="3"/>
  <text class="sans label" x="31" y="336" font-size="31">I design and build systems that</text>
  <text class="sans label" x="31" y="380" font-size="31">connect people to outcomes.</text>
</g>
<g transform="translate(660 120)">
  <circle cx="340" cy="245" r="128" fill="url(#irisGlow)" stroke="#13743F" stroke-width="1.5"/>
  <g class="irisA"><path class="signal" d="M340 90a155 155 0 0 1 140 88M494 260a155 155 0 0 1-114 134M212 284a155 155 0 0 1 3-120" stroke-width="5"/></g>
  <g class="irisB"><path class="softSignal" d="M340 130a115 115 0 0 1 92 46M448 258a115 115 0 0 1-73 87M248 288a115 115 0 0 1-2-94" stroke-width="2.5"/></g>
  <circle cx="340" cy="245" r="48" fill="#06110B" stroke="#95F5B4"/>
  <path class="signal signalPath" d="M-28 560C136 480 208 360 340 245S640 126 818 84" opacity=".72" stroke-width="2.5"/>
</g>
<g transform="translate(910 108)">
  <path class="panel" d="M18 0H530L548 18V152L530 170H18L0 152V18Z"/>
  <text class="mono micro" x="28" y="42" font-size="18" fill="#95F5B4">ZEREF</text>
  <path class="line" d="M28 60H520" opacity=".55"/>
  <text class="mono darkText" x="32" y="92" font-size="18">zeref = { memory: "local-first",</text><text class="mono darkText" x="32" y="124" font-size="18">  context: "guarded", handoffs: "cross-harness" }</text><circle class="seed node" cx="500" cy="108" r="8"/>
</g>
<g transform="translate(910 306)">
  <path class="panel" d="M18 0H530L548 18V152L530 170H18L0 152V18Z"/>
  <text class="mono micro" x="28" y="42" font-size="18" fill="#95F5B4">PERFIN OS</text>
  <path class="line" d="M28 60H520" opacity=".55"/>
  <text class="mono darkText" x="32" y="92" font-size="18">perfin = { ownership: "team project",</text><text class="mono darkText" x="32" y="124" font-size="18">  platform: "React Native + Firebase" }</text><circle class="seed node" cx="500" cy="108" r="8"/>
</g>
<g transform="translate(620 534)">
  <path class="shell" d="M18 0H810L828 18V112L810 130H18L0 112V18Z" fill="#F9FCF8"/>
  <g class="stagePulse" style="animation-delay:0s" transform="translate(42 32)"><circle class="node" cx="24" cy="28" r="21" opacity=".72"/><text class="sans label" x="62" y="40" font-size="22"><tspan font-size="44" font-weight="700" fill="#13743F">2</tspan> Ready to Ship Projects</text></g>
  <path class="line" d="M296 26V104"/>
  <g class="stagePulse" style="animation-delay:2s" transform="translate(330 32)"><circle class="node" cx="24" cy="28" r="21" opacity=".72"/><text class="sans label" x="62" y="40" font-size="22"><tspan font-size="44" font-weight="700" fill="#13743F">1</tspan> Team Project</text></g>
  <path class="line" d="M562 26V104"/>
  <g class="stagePulse" style="animation-delay:4s" transform="translate(598 32)"><circle class="node" cx="24" cy="28" r="21" opacity=".72"/><text class="sans label" x="62" y="40" font-size="22"><tspan font-size="44" font-weight="700" fill="#13743F">5</tspan> Certificates</text></g>
</g>
<g transform="translate(58 752)">
  <path class="shell" d="M18 0H1466L1484 18V92L1466 110H18L0 92V18Z" fill="#F9FCF8"/>
  <path class="signal signalPath" d="M54 55H1428" opacity=".28"/>
  <text class="sans label" x="78" y="62" font-size="18">Figma</text><text class="sans label" x="230" y="62" font-size="18">Linear</text><text class="sans label" x="382" y="62" font-size="18">Notion</text><text class="sans label" x="534" y="62" font-size="18">React</text><text class="sans label" x="686" y="62" font-size="18">SwiftUI</text><text class="sans label" x="838" y="62" font-size="18">Firebase</text><text class="sans label" x="990" y="62" font-size="18">Claude</text><text class="sans label" x="1142" y="62" font-size="18">Codex</text><text class="sans label" x="1294" y="62" font-size="18">GitHub</text>
</g>
</svg>