<svg xmlns="http://www.w3.org/2000/svg" width="1600" height="900" viewBox="0 0 1600 900" role="img" aria-labelledby="title desc">
<title id="title">Yash Kanadhia Minimal Samurai Light static profile hero</title>
<desc id="desc">Yash Kanadhia, Product Designer in Toronto, Ontario, Canada. I design and build systems that connect people to outcomes. Metrics: 2 Ready to Ship Projects, 1 Team Project, 5 Certificates. Zeref and PerFin OS evidence panels. Tools: Figma, Linear, Notion, React, SwiftUI, Firebase, Claude, Codex, and GitHub.</desc>
<defs><linearGradient id="paper" x1="0" y1="0" x2="1" y2="1"><stop stop-color="#FBF8F2"/><stop offset="1" stop-color="#F4EFE7"/></linearGradient><style>.sans{font-family:Inter,Arial,sans-serif}.serif{font-family:Georgia,'Times New Roman',serif}.mono{font-family:'SFMono-Regular',Consolas,'Liberation Mono',monospace}</style></defs>
<rect width="1600" height="900" fill="url(#paper)"/><rect x="1" y="1" width="1598" height="898" fill="none" stroke="#CEC5BA"/>
<path d="M0 690C145 555 237 598 310 667c56-90 126-116 199-47 74-122 166-127 247 15 78-71 154-56 230 34 94-65 171-37 249 46H0Z" fill="#C9C5BE" opacity=".38"/><path d="M0 780c140-82 252-76 366-8 89-94 188-91 279-7 96-62 188-45 279 30H0Z" fill="#DEDAD3" opacity=".7"/>
<path d="M1200 900c134-35 257-124 400-251v251Z" fill="#111" opacity=".84"/><path d="M1258 900c106-56 204-128 342-213" fill="none" stroke="#F8F6F1" stroke-width="18" stroke-linecap="round" opacity=".8"/>
<g transform="translate(76 120)"><text x="0" y="80" class="sans" font-size="72" font-weight="650" fill="#1C1B18">Yash Kanadhia</text><text x="4" y="145" class="sans" font-size="24" letter-spacing="8" fill="#A6322D">PRODUCT DESIGNER</text><g transform="translate(2 190)"><path d="M13 0C6 0 1 5 1 12c0 9 12 22 12 22s12-13 12-22C25 5 20 0 13 0Zm0 17a5 5 0 1 1 0-10 5 5 0 0 1 0 10Z" fill="#A6322D"/><text x="38" y="25" class="sans" font-size="25" fill="#1C1B18">Toronto, Ontario, Canada</text></g><rect x="2" y="264" width="72" height="3" fill="#A6322D"/><text x="2" y="326" class="sans" font-size="29" fill="#1C1B18">I design and build systems that</text><text x="2" y="369" class="sans" font-size="29" fill="#1C1B18">connect people to outcomes.</text></g>
<g transform="translate(648 185)"><rect width="370" height="270" rx="16" fill="#FCFAF6" stroke="#D4CBC0"/><text x="28" y="43" class="mono" font-size="18" fill="#1C1B18">// ZEREF</text><line x1="24" y1="62" x2="346" y2="62" stroke="#D4CBC0"/><rect x="25" y="86" width="3" height="142" rx="1.5" fill="#A6322D"/><text x="50" y="103" class="mono" font-size="17" fill="#1C1B18">zeref = {</text><text x="68" y="137" class="mono" font-size="16" fill="#1C1B18">purpose: <tspan fill="#A6322D">"AI memory layer"</tspan>,</text><text x="68" y="170" class="mono" font-size="16" fill="#1C1B18">privacy: <tspan fill="#A6322D">"local-first"</tspan>,</text><text x="68" y="203" class="mono" font-size="16" fill="#1C1B18">control: <tspan fill="#A6322D">"user-owned"</tspan>,</text><text x="68" y="236" class="mono" font-size="16" fill="#1C1B18">evidence: <tspan fill="#A6322D">"verifiable"</tspan></text><text x="50" y="258" class="mono" font-size="17" fill="#1C1B18">}</text></g>
<g transform="translate(1040 185)"><rect width="370" height="270" rx="16" fill="#FCFAF6" stroke="#D4CBC0"/><text x="28" y="43" class="mono" font-size="18" fill="#1C1B18">// PERFIN OS</text><line x1="24" y1="62" x2="346" y2="62" stroke="#D4CBC0"/><rect x="25" y="86" width="3" height="142" rx="1.5" fill="#1C1B18"/><text x="50" y="103" class="mono" font-size="17" fill="#1C1B18">perfinOS = {</text><text x="68" y="137" class="mono" font-size="16" fill="#1C1B18">type: <tspan fill="#A6322D">"personal finance OS"</tspan>,</text><text x="68" y="170" class="mono" font-size="16" fill="#1C1B18">role: <tspan fill="#A6322D">"co-creator"</tspan>,</text><text x="68" y="203" class="mono" font-size="16" fill="#1C1B18">focus: <tspan fill="#A6322D">"clarity, control"</tspan>,</text><text x="68" y="236" class="mono" font-size="16" fill="#1C1B18">status: <tspan fill="#A6322D">"ship-ready"</tspan></text><text x="50" y="258" class="mono" font-size="17" fill="#1C1B18">}</text></g>
<g transform="translate(648 488)"><rect width="762" height="118" rx="16" fill="#FCFAF6" stroke="#D4CBC0"/><text x="48" y="72" class="sans" font-size="23" fill="#1C1B18"><tspan font-size="42" fill="#A6322D">2</tspan> Ready to Ship Projects</text><line x1="285" y1="22" x2="285" y2="96" stroke="#D4CBC0"/><text x="330" y="72" class="sans" font-size="23" fill="#1C1B18"><tspan font-size="42" fill="#A6322D">1</tspan> Team Project</text><line x1="540" y1="22" x2="540" y2="96" stroke="#D4CBC0"/><text x="580" y="72" class="sans" font-size="23" fill="#1C1B18"><tspan font-size="42" fill="#A6322D">5</tspan> Certificates</text></g>
<g transform="translate(1492 78)"><text x="0" y="0" writing-mode="tb" glyph-orientation-vertical="0" class="serif" font-size="28" fill="#1C1B18">改善・構築・守る</text><rect x="-3" y="280" width="38" height="38" fill="none" stroke="#A6322D" stroke-width="2"/><text x="16" y="306" text-anchor="middle" class="sans" font-size="13" font-weight="700" fill="#A6322D">YK</text></g>
<g transform="translate(42 786)"><rect width="1516" height="82" rx="16" fill="#FCFAF6" stroke="#D4CBC0"/><g class="sans" font-size="16" fill="#1C1B18"><text x="66" y="50">◉ Figma</text><text x="226" y="50">◉ Linear</text><text x="382" y="50">▣ Notion</text><text x="540" y="50">◎ React</text><text x="696" y="50">◆ SwiftUI</text><text x="858" y="50">△ Firebase</text><text x="1020" y="50">✳ Claude</text><text x="1180" y="50">⬡ Codex</text><text x="1340" y="50">● GitHub</text></g></g>
</svg>